<?xml version="1.0" encoding="UTF-8"?>
<svg width="800" height="600" viewBox="0 0 800 600" xmlns="http://www.w3.org/2000/svg">
  <!-- Background -->
  <rect width="800" height="600" fill="#f8f9fa"/>
  
  <!-- Title -->
  <text x="400" y="40" font-family="Arial" font-size="24" text-anchor="middle" fill="#2c3e50">Edible Backyard Oasis</text>
  
  <!-- Legend -->
  <g transform="translate(20, 80)">
    <rect width="160" height="220" fill="#ffffff" stroke="#dee2e6"/>
    <text x="10" y="30" font-family="Arial" font-size="14" fill="#2c3e50">Legend:</text>
    <rect x="15" y="45" width="20" height="20" fill="#8b4513"/>
    <text x="40" y="60" font-family="Arial" font-size="12" fill="#2c3e50">Raised Beds</text>
    <circle cx="25" cy="85" r="8" fill="#2e7d32"/>
    <text x="40" y="90" font-family="Arial" font-size="12" fill="#2c3e50">Fruit Trees</text>
    <rect x="15" y="105" width="20" height="20" fill="#81c784"/>
    <text x="40" y="120" font-family="Arial" font-size="12" fill="#2c3e50">Children's Garden</text>
    <rect x="15" y="135" width="20" height="20" fill="#a1887f"/>
    <text x="40" y="150" font-family="Arial" font-size="12" fill="#2c3e50">Outdoor Kitchen</text>
    <rect x="15" y="165" width="20" height="20" fill="#90a4ae"/>
    <text x="40" y="180" font-family="Arial" font-size="12" fill="#2c3e50">Pathways</text>
    <rect x="15" y="195" width="20" height="20" fill="#cddc39"/>
    <text x="40" y="210" font-family="Arial" font-size="12" fill="#2c3e50">Play Area</text>
  </g>

  <!-- Main Design -->
  <g transform="translate(200, 100)">
    <!-- Property Boundary -->
    <rect x="0" y="0" width="550" height="400" fill="none" stroke="#2c3e50" stroke-width="2"/>
    
    <!-- Main Pathways -->
    <path d="M50,200 L500,200" stroke="#90a4ae" stroke-width="20" fill="none"/>
    <path d="M275,50 L275,350" stroke="#90a4ae" stroke-width="20" fill="none"/>
    
    <!-- Raised Beds -->
    <g transform="translate(50,50)">
      <g fill="#8b4513">
        <rect x="0" y="0" width="80" height="20"/>
        <rect x="0" y="40" width="80" height="20"/>
        <rect x="0" y="80" width="80" height="20"/>
      </g>
      <text x="40" y="-10" font-family="Arial" font-size="12" text-anchor="middle" fill="#2c3e50">Vegetables</text>
    </g>
    
    <!-- Fruit Tree Guild -->
    <g transform="translate(400,75)">
      <circle cx="0" cy="0" r="50" fill="#e8f5e9" stroke="#4caf50" stroke-width="2"/>
      <circle cx="0" cy="0" r="20" fill="#2e7d32"/> <!-- Central tree -->
      <g fill="#2e7d32"> <!-- Companion plants -->
        <circle cx="35" cy="0" r="10"/>
        <circle cx="-35" cy="0" r="10"/>
        <circle cx="0" cy="35" r="10"/>
        <circle cx="0" cy="-35" r="10"/>
      </g>
      <text x="0" y="-60" font-family="Arial" font-size="12" text-anchor="middle" fill="#2c3e50">Fruit Tree Guild</text>
    </g>
    
    <!-- Children's Garden -->
    <g transform="translate(50,250)">
      <rect x="0" y="0" width="175" height="100" fill="#81c784" stroke="#4caf50" stroke-width="2"/>
      <path d="M20,20 L50,50 L80,20 M50,50 L50,80" stroke="#4caf50" stroke-width="2" fill="none"/>
      <circle cx="120" cy="50" r="20" fill="#ffeb3b"/> <!-- Sunflower -->
      <text x="87.5" y="-10" font-family="Arial" font-size="12" text-anchor="middle" fill="#2c3e50">Children's Garden</text>
    </g>
    
    <!-- Outdoor Kitchen -->
    <g transform="translate(325,250)">
      <rect x="0" y="0" width="175" height="100" fill="#a1887f" stroke="#795548" stroke-width="2"/>
      <rect x="20" y="20" width="60" height="30" fill="#795548"/> <!-- Counter -->
      <circle cx="120" cy="50" r="20" fill="#795548"/> <!-- Table -->
      <text x="87.5" y="-10" font-family="Arial" font-size="12" text-anchor="middle" fill="#2c3e50">Outdoor Kitchen</text>
    </g>
    
    <!-- Play Area -->
    <rect x="325" y="50" width="175" height="100" fill="#cddc39" stroke="#9e9d24" stroke-width="2"/>
    
    <!-- Scale -->
    <g transform="translate(0, 420)">
      <line x1="0" y1="0" x2="550" y2="0" stroke="#2c3e50" stroke-width="2"/>
      <line x1="0" y1="-5" x2="0" y2="5" stroke="#2c3e50" stroke-width="2"/>
      <line x1="137.5" y1="-5" x2="137.5" y2="5" stroke="#2c3e50" stroke-width="2"/>
      <line x1="275" y1="-5" x2="275" y2="5" stroke="#2c3e50" stroke-width="2"/>
      <line x1="412.5" y1="-5" x2="412.5" y2="5" stroke="#2c3e50" stroke-width="2"/>
      <line x1="550" y1="-5" x2="550" y2="5" stroke="#2c3e50" stroke-width="2"/>
      <text x="0" y="20" font-family="Arial" font-size="12" text-anchor="middle" fill="#2c3e50">0'</text>
      <text x="137.5" y="20" font-family="Arial" font-size="12" text-anchor="middle" fill="#2c3e50">15'</text>
      <text x="275" y="20" font-family="Arial" font-size="12" text-anchor="middle" fill="#2c3e50">30'</text>
      <text x="412.5" y="20" font-family="Arial" font-size="12" text-anchor="middle" fill="#2c3e50">45'</text>
      <text x="550" y="20" font-family="Arial" font-size="12" text-anchor="middle" fill="#2c3e50">60'</text>
    </g>

    <!-- Height Indicator -->
    <g transform="translate(-30, 0)">
      <line x1="0" y1="0" x2="0" y2="400" stroke="#2c3e50" stroke-width="2"/>
      <line x1="-5" y1="0" x2="5" y2="0" stroke="#2c3e50" stroke-width="2"/>
      <line x1="-5" y1="400" x2="5" y2="400" stroke="#2c3e50" stroke-width="2"/>
      <text x="-10" y="200" font-family="Arial" font-size="12" text-anchor="middle" fill="#2c3e50" transform="rotate(-90, -10, 200)">40'</text>
    </g>
  </g>
</svg>
